<svg xmlns="http://www.w3.org/2000/svg" enable-background="new 0 0 128 128" viewBox="0 0 128 128" id="online-resume">
  <path fill="#373737" d="M34.9,78.8H64h29.1c1.7,0,3-1.4,3-3V4.6c0-1.7-1.4-3-3-3H64H34.9c-1.7,0-3,1.4-3,3v71.2
					C31.9,77.4,33.2,78.8,34.9,78.8z M37.9,7.6H64h26.1v65.1H64H37.9V7.6z"></path>
  <path fill="#373737" d="M58.1 25.8c.5 2.8 3 4.8 5.9 4.8 2.9 0 5.3-2 5.9-4.8l.9-4.7c.5-3.8-2.4-7.2-6.2-7.2H64h-.5c-3.8 0-6.8 3.4-6.2 7.2L58.1 25.8zM77.6 36.1c-.1-.6-.6-1.1-1.1-1.3l-6.4-2.3L64 38.6l-6.1-6.1-6.4 2.3c-.6.2-1 .7-1.1 1.3l-2.2 10.3h31.6L77.6 36.1zM82.2 57.4c0-1.1-.9-1.9-1.9-1.9H47.8c-1.1 0-1.9.9-1.9 1.9 0 1.1.9 1.9 1.9 1.9h32.5C81.3 59.3 82.2 58.5 82.2 57.4z"></path>
  <path fill="#373737" d="M113,24.1h-11.2v10.6h9.1c0,0.1,0.1,0.2,0.1,0.4v58.4H17V35.1c0-0.2,0.1-0.3,0.1-0.4h9.1V24.1H15
				c-4.6,0-8.3,3.7-8.3,8.3V100c0,4.6,3.7,8.3,8.3,8.3h31.3l-5.5,13.9c-0.4,1-0.3,2,0.3,2.9c0.6,0.9,1.5,1.4,2.6,1.4H84
				c1,0,2-0.5,2.6-1.3c0.6-0.8,0.7-1.9,0.4-2.9l-5.3-14H113c4.6,0,8.3-3.7,8.3-8.3V32.3C121.3,27.8,117.6,24.1,113,24.1z"></path>
</svg>
